<svg width="521" height="272" viewBox="0 0 521 272" fill="none" xmlns="http://www.w3.org/2000/svg">
<path d="M84.5244 129.907L12.6787 129.907L12.6787 107.967L84.5244 107.967L84.5244 96.0004L8.49243e-06 96.0004L3.60924e-06 141.874L71.8457 141.874L71.8457 163.814L1.27384e-06 163.814L0 175.781L84.5244 175.781L84.5244 129.907Z" fill="white"/>
<path d="M185.956 96.0001V107.967H114.109V163.814H185.956V175.78H101.43V96.0001H185.956Z" fill="white"/>
<path d="M316.97 96.0001V96.1202L376.136 151.966V96.0001H388.815V175.78H376.136V175.658L316.97 119.814V175.78H304.291V96.0001H316.97Z" fill="white"/>
<path d="M287.386 107.967H215.54V129.907H287.386V141.874H215.54V163.814H287.386V175.78H202.86V163.814H202.861V141.874H202.86V129.907H202.861V96.0001H287.386V107.967Z" fill="white"/>
<path d="M490.245 107.967H418.399V129.907H490.245V141.874H418.399V163.814H490.245V175.78H405.72V96.0001H490.245V107.967Z" fill="white"/>
<path d="M84.5244 11.9668L48.6016 11.9668L48.6016 79.7803L35.9228 79.7803L35.9229 11.9668L-2.61543e-07 11.9668L0 0L84.5244 1.84734e-06L84.5244 11.9668Z" fill="white"/>
<path d="M287.053 79.7812H269.123L233.199 45.874H215.539V79.7803H202.861V45.874H202.86V33.9062H202.861V0H287.385V45.874H251.129L287.053 79.7812ZM215.539 33.9062H274.706V11.9668H215.539V33.9062Z" fill="white"/>
<path d="M388.814 11.9668H316.969V33.9062H388.815V45.874H316.969V67.8135H388.815V79.7803H304.29V0H388.814V11.9668Z" fill="white"/>
<path d="M490.244 11.9668H418.399V33.9062H490.244V45.874H418.399V67.8135H490.244V79.7803H405.72V0H490.244V11.9668Z" fill="white"/>
<path d="M114.109 33.9062H173.276V0H185.954V33.9062H185.955V45.874H185.954V79.7803H173.276V45.874H114.109V79.7803H101.43V0H114.109V33.9062Z" fill="white"/>
<path d="M84.7356 225.949L12.8899 225.949L12.8899 204.009L84.7356 204.009L84.7356 192.043L0.21119 192.043L0.211185 237.916L72.0579 237.916L72.0579 259.856L0.211183 259.856L0.211182 271.823L84.7356 271.823L84.7356 225.949Z" fill="white"/>
<path d="M186.165 204.009L150.243 204.009L150.243 271.823L137.565 271.823L137.565 204.009L101.641 204.009L101.641 192.042L186.165 192.042L186.165 204.009Z" fill="white"/>
<path d="M203.071 192.043L215.749 192.043L215.749 259.856L274.917 259.856L274.917 192.043L287.596 192.043L287.596 271.823L203.071 271.823L203.071 192.043Z" fill="white"/>
<rect x="418.609" y="192.042" width="79.7806" height="12.6787" transform="rotate(90 418.609 192.042)" fill="white"/>
<path d="M448.193 192.091H507.361V192.042H520.039V192.091H520.091V204.058H520.039V259.905H520.091V271.871H435.566V271.823H435.514V192.042H448.193V192.091ZM448.193 259.905H507.361V204.058H448.193V259.905Z" fill="white"/>
<path d="M388.973 210.703V252.942L368.97 271.823H304.501V192.091H351.322L351.27 192.042H369.202L388.973 210.703ZM317.179 259.905H363.667L376.346 247.936V215.71L364.001 204.058H317.179V259.905Z" fill="white"/>
</svg>
